<svg xmlns="http://www.w3.org/2000/svg" version="1.1" viewBox="139.21 147 473.58 458">
 <defs>
  <clipPath id="a">
   <path d="m139.21 147h473.58v458h-473.58z"/>
  </clipPath>
 </defs>
 <g clip-path="url(#a)">
  <path d="m390.54 503.02c4.5 0 8.5703 2.4609 10.703 6.3477l20.98 70.09c4.4062 14.777 17.711 24.672 33.102 24.672 15.438 0 28.746-9.8984 33.152-24.672l20.934-70.09c2.1328-3.8828 6.25-6.3477 10.703-6.3477h50.055c23.488 0 42.621-19.133 42.621-42.621v-269.94c0-23.488-19.133-42.621-42.621-42.621h-388.34c-23.488 0-42.621 19.133-42.621 42.621v269.94c0 23.488 19.133 42.621 42.621 42.621zm-211.88-42.574v-269.94c0-1.7539 1.4219-3.1719 3.1719-3.1719h388.34c1.7539 0 3.1719 1.4219 3.1719 3.1719v269.94c0 1.7539-1.4219 3.1719-3.1719 3.1719h-50.008c-20.363 0-38.883 12.027-47.168 30.594-0.33203 0.75781-0.66406 1.5625-0.89844 2.3672l-16.719 55.977-16.719-55.977c-0.23828-0.80469-0.51953-1.6094-0.89844-2.3672-8.2891-18.562-26.805-30.594-47.168-30.594h-208.76c-1.75-0.046875-3.1719-1.4688-3.1719-3.1719z"/>
 </g>
</svg>