<?xml version="1.0" encoding="UTF-8"?>
<svg width="752pt" height="752pt" version="1.1" viewBox="0 0 752 752" xmlns="http://www.w3.org/2000/svg">
 <defs>
  <clipPath id="a">
   <path d="m139.21 328h473.58v96h-473.58z"/>
  </clipPath>
 </defs>
 <g clip-path="url(#a)">
  <path d="m187.28 328.64c-12.562 0-24.609 4.9883-33.488 13.871-8.8828 8.8789-13.871 20.926-13.871 33.484 0 12.562 4.9883 24.605 13.871 33.488 8.8789 8.8828 20.926 13.871 33.488 13.871 12.559 0 24.605-4.9883 33.484-13.871 8.8828-8.8828 13.871-20.926 13.871-33.488 0-12.559-4.9883-24.605-13.871-33.484-8.8789-8.8828-20.926-13.871-33.484-13.871zm189.43 0h-0.003906c-12.559 0-24.605 4.9883-33.488 13.871-8.8789 8.8789-13.867 20.926-13.867 33.484 0 12.562 4.9883 24.605 13.867 33.488 8.8828 8.8828 20.93 13.871 33.488 13.871 12.562 0 24.605-4.9883 33.488-13.871 8.8828-8.8828 13.871-20.926 13.871-33.488 0-12.613-5.0312-24.707-13.984-33.598-8.9492-8.8906-21.074-13.844-33.691-13.758zm189.43 0h-0.003907c-12.559 0-24.605 4.9883-33.488 13.871-8.8789 8.8789-13.871 20.926-13.871 33.484 0 12.562 4.9922 24.605 13.871 33.488 8.8828 8.8828 20.93 13.871 33.488 13.871 12.559 0 24.605-4.9883 33.488-13.871 8.8789-8.8828 13.871-20.926 13.871-33.488 0-12.684-5.0859-24.836-14.121-33.738-9.0391-8.9023-21.266-13.809-33.949-13.617z" fill-rule="evenodd"/>
 </g>
</svg>
