<svg xmlns="http://www.w3.org/2000/svg" version="1.1" viewBox="162.89 154.61 425.56 416.03">
 <path d="m579.17 333.85c-15.629-32.203-59.199-30.781-88.086-29.836-4.7344 0-9.4727 0.47266-12.785 0l0.47266-0.47266c9.4727-16.574 25.102-44.043 30.781-64.406 4.7344-17.051 1.4219-38.832-9.4727-56.355-8.9961-14.68-21.785-24.625-35.52-27.469-9.9453-1.8945-19.891 0-27.469 6.1562-15.156 11.367-17.996 33.625-18.469 39.781-4.2617 28.887-32.676 55.883-45.938 68.668-1.8945 1.8945-3.7891 3.7891-5.2109 5.2109-9.4727 9.4727-14.68 22.258-20.363 35.047-3.3164 7.5781-6.1562 15.156-9.9453 20.836-5.6836 8.5234-12.312 16.574-17.051 21.312h-3.7891c-4.7344-11.367-16.102-18.941-28.887-18.941l-92.816-0.003906c-17.523 0-31.73 14.207-31.73 31.73v173.8c0 17.047 14.207 31.254 31.73 31.254h93.297c10.418 0 19.418-5.2109 25.102-12.785 7.1055 5.6836 13.734 9.4727 15.156 10.418 2.8398 1.8945 6.1562 2.8398 9.4727 2.8398h183.75 2.8398c12.785-1.8945 23.68-8.5234 30.309-18.469 8.9961-13.262 9.4727-29.836 8.5234-40.254 14.207-17.996 13.262-38.832 8.5234-53.988 8.9961-11.84 13.734-24.152 13.734-37.414 0-9.4727-2.3672-17.523-5.2109-23.68 14.68-23.203 7.1016-49.723-0.94922-62.984zm-297.88 198.43h-80.508v-161.02h80.508zm263.79-152.02c-3.7891 3.3164-6.6289 8.0508-6.6289 13.734s1.8945 10.418 5.2109 13.734c4.7344 5.2109 9.9453 16.102-7.1055 32.203-6.1562 6.1562-7.5781 15.629-3.3164 23.207 1.4219 2.8398 8.9961 17.051-2.8398 27.941-5.2109 4.7344-7.1055 11.367-5.6836 17.996 1.4219 6.1562 1.4219 16.574-1.4219 21.312-0.47266 0.47266-0.94531 1.4219-3.7891 2.3672h-176.64c-5.6836-3.7891-13.262-9.4727-17.051-13.734-1.8945-2.3672-4.2617-4.2617-7.1055-5.2109l0.003907-123.61h8.9961c4.7344 0 9.4727-1.8945 12.785-5.2109 0.47266-0.47266 16.574-15.629 28.414-34.098 5.2109-8.5234 8.9961-17.523 12.785-26.047 3.7891-9.4727 8.0508-18.941 11.84-22.73 1.4219-1.4219 2.8398-2.8398 4.7344-4.2617 17.051-16.102 52.094-49.727 57.777-91.875v-1.4219c0.47266-3.7891 1.4219-8.5234 2.8398-11.367 2.3672 1.4219 5.6836 4.2617 8.5234 8.9961 5.2109 8.5234 7.5781 19.418 5.6836 26.52-4.7344 16.102-19.418 42.148-27.469 56.355-1.8945 3.3164-3.3164 6.1562-4.7344 8.0508-8.0508 15.156-5.6836 25.574-1.8945 32.203 8.5234 15.629 28.887 16.574 35.52 16.574 5.2109 0.47266 11.367 0 17.523 0 15.629-0.47266 48.305-1.4219 53.516 8.9961 0.47266 0.47266 0.47266 1.4219 0.94531 1.8945 0.48047 0.95703 10.426 17.059-1.4141 27.477z"/>
</svg>