<svg xmlns="http://www.w3.org/2000/svg" version="1.1" viewBox="316 139.21 120 473.58">
 <defs>
  <clipPath id="a">
   <path d="m316 139.21h120v473.58h-120z"/>
  </clipPath>
 </defs>
 <g clip-path="url(#a)">
  <path d="m376 435.2c-33.547 0-59.199-25.652-59.199-59.199s25.652-59.199 59.199-59.199 59.199 25.652 59.199 59.199-25.652 59.199-59.199 59.199zm0-78.93c-11.84 0-19.734 7.8945-19.734 19.734s7.8945 19.734 19.734 19.734 19.734-7.8945 19.734-19.734c0-11.844-7.8945-19.734-19.734-19.734zm0-98.664c-33.543 0-59.195-25.652-59.195-59.195 0-33.547 25.652-59.199 59.199-59.199s59.199 25.652 59.199 59.199c-0.003906 33.543-25.656 59.195-59.203 59.195zm0-78.93c-11.84 0-19.73 7.8945-19.73 19.734s7.8945 19.734 19.734 19.734 19.734-7.8945 19.734-19.734c-0.003906-11.84-7.8984-19.734-19.738-19.734zm0 315.72c33.547 0 59.199 25.652 59.199 59.199s-25.652 59.199-59.199 59.199-59.199-25.652-59.199-59.199c0.003907-33.547 25.656-59.199 59.199-59.199zm0 78.93c11.84 0 19.734-7.8945 19.734-19.734s-7.8945-19.734-19.734-19.734-19.734 7.8945-19.734 19.734c0.003906 11.84 7.8945 19.734 19.734 19.734z" fill-rule="evenodd"/>
 </g>
</svg>